HIERARCHY
ROOT simHips
{
  OFFSET 0.727 85.0176 -1.35644
  CHANNELS 6 Xposition Yposition Zposition Zrotation Xrotation Yrotation
  JOINT simSpine
  {
    OFFSET -0.000355721 21.3001 -0.016921
    CHANNELS 3 Zrotation Xrotation Yrotation
    JOINT simLeftArm
    {
      OFFSET 13.5181 21.3012 0
      CHANNELS 3 Zrotation Xrotation Yrotation
      JOINT simLeftForeArm
      {
        OFFSET 24.5783 0 0
        CHANNELS 3 Zrotation Xrotation Yrotation
        JOINT simLeftHand
        {
          OFFSET 24.5783 0 0
          CHANNELS 3 Zrotation Xrotation Yrotation
          End Site
          {
            OFFSET 7.32568 1.52588e-05 0.0169305
          }
        }
      }
    }
    JOINT simHead
    {
      OFFSET 0 27.4458 -0.00489235
      CHANNELS 3 Zrotation Xrotation Yrotation
      End Site
      {
        OFFSET 0 0 0
      }
    }
    JOINT simRightArm
    {
      OFFSET -13.5174 21.3012 0
      CHANNELS 3 Zrotation Xrotation Yrotation
      JOINT simRightForeArm
      {
        OFFSET -24.5783 0 0
        CHANNELS 3 Zrotation Xrotation Yrotation
        JOINT simRightHand
        {
          OFFSET -24.5783 0 0
          CHANNELS 3 Zrotation Xrotation Yrotation
          End Site
          {
            OFFSET -7.32568 1.52588e-05 0.0169305
          }
        }
      }
    }
  }
  JOINT simRightUpLeg
  {
    OFFSET -8.44614 -9.41038 0.835684
    CHANNELS 3 Zrotation Xrotation Yrotation
    JOINT simRightLeg
    {
      OFFSET 0 -40.9639 0
      CHANNELS 3 Zrotation Xrotation Yrotation
      JOINT simRightFoot
      {
        OFFSET 0 -40.9639 0
        CHANNELS 3 Zrotation Xrotation Yrotation
        End Site
        {
          OFFSET 0.50614 -9.67405 14.6709
        }
      }
    }
  }
  JOINT simLeftUpLeg
  {
    OFFSET 8.44614 -9.41038 0.835684
    CHANNELS 3 Zrotation Xrotation Yrotation
    JOINT simLeftLeg
    {
      OFFSET 0 -40.9639 0
      CHANNELS 3 Zrotation Xrotation Yrotation
      JOINT simLeftFoot
      {
        OFFSET 0 -40.9639 0
        CHANNELS 3 Zrotation Xrotation Yrotation
        End Site
        {
          OFFSET -0.50614 -9.67405 14.6709
        }
      }
    }
  }
}
MOTION
Frames:	26
Frame Time:	0.0333333
0.727 85.0176 -1.35644 0.0522279 -5.45314 -46.3231 -1.95697 9.24296 7.55271 -73.4788 -36.6253 -36.9545 0.000335076 -4.29811e-06 -106.361 -15.7619 4.0153 -6.87536 -3.25185 11.8042 36.2335 57.9417 29.0746 54.447 0.00277651 4.20291e-06 105.988 8.40498 -5.61987 18.572 -28.2269 -17.8495 -21.6509 -17.1299 62.1701 5.33858 23.7447 -29.0256 5.0427 18.9899 -28.3337 17.9023 9.62246 62.477 -15.0718 -14.9248 -25.3696 -14.7164 
0.808077 84.6136 -0.890966 -0.291462 -5.78996 -46.3029 -2.26793 9.77389 7.75945 -73.0304 -35.696 -35.862 0.000335079 -4.2868e-06 -106.316 -15.8095 4.33201 -6.70127 -2.68747 11.5348 35.8684 57.8472 29.6957 53.7782 0.00277658 3.9459e-06 104.987 8.50102 -4.03681 19.1358 -28.6398 -17.3589 -21.5203 -17.714 62.6086 6.14249 24.3322 -29.3137 5.29369 18.7651 -29.5444 17.1795 11.6429 65.2371 -16.9868 -16.2181 -23.7232 -14.544 
0.942564 84.0932 -0.275074 -0.643408 -6.42065 -46.5952 -2.49602 10.3582 8.17451 -72.3211 -35.0111 -33.8523 0.00033506 -4.35196e-06 -106.571 -15.7166 4.04045 -6.93859 -2.23487 11.2747 35.8533 57.8368 30.2589 53.5239 0.00277666 3.65313e-06 103.852 8.59033 -2.79327 19.6002 -29.4898 -16.8351 -21.7847 -19.4318 63.0177 8.53422 24.9648 -29.6748 5.57099 19.3387 -31.4716 17.0017 15.7069 69.471 -23.2094 -18.9223 -21.069 -14.1934 
1.12267 83.4842 0.583938 -0.942924 -7.39466 -47.4274 -2.72057 10.9859 9.05143 -71.0475 -34.028 -29.9835 0.000334992 -4.57449e-06 -107.445 -15.1573 2.89011 -7.32495 -2.25018 11.2678 36.3372 57.8487 31.1512 53.3467 0.0027767 3.44855e-06 103.062 8.82904 -2.22756 19.6066 -30.863 -16.3468 -22.402 -22.5247 63.1535 12.8866 25.6263 -30.0674 5.86019 20.8695 -33.3926 17.5683 20.2986 74.584 -29.3244 -22.1489 -16.8342 -16.1523 
1.45106 83.0065 1.96214 -1.03621 -8.30228 -49.2053 -2.82432 11.2217 10.061 -69.4107 -33.5578 -24.5305 0.000334875 -4.93071e-06 -108.853 -15.4726 1.24444 -7.76153 -3.15204 11.6724 37.4769 57.6265 32.6217 53.0148 0.00277674 3.30255e-06 102.5 9.34132 -2.13509 19.3323 -33.3766 -16.0739 -22.941 -23.1387 62.9462 16.0989 25.5585 -30.0836 6.29937 22.5292 -34.6411 18.5494 25.7116 79.261 -35.0469 -23.7377 -12.5296 -19.6015 
1.94252 82.8085 3.75795 -0.811987 -8.77141 -51.6413 -2.91221 10.7604 10.8196 -67.6306 -33.7137 -19.0319 0.000334712 -5.38497e-06 -110.665 -16.9725 -0.402721 -8.06859 -4.76066 12.2649 39.228 56.8172 34.5586 52.6881 0.00277678 3.12373e-06 101.813 9.86479 -2.03036 19.3501 -36.1196 -16.3018 -23.5093 -22.3574 61.8357 18.4849 25.1345 -29.3947 6.59485 23.8967 -35.0568 19.6391 30.7105 82.309 -40.2826 -23.0929 -10.8642 -22.4995 
2.57401 82.9236 5.87821 -0.314442 -8.75991 -54.6197 -3.11443 9.69104 11.0415 -65.4227 -35.0977 -14.8744 0.000334657 -5.52665e-06 -111.235 -19.8092 -2.50576 -8.22087 -6.82818 12.4156 41.7519 55.0337 36.8132 53.3334 0.00277685 2.77176e-06 100.466 10.2168 -1.94585 19.483 -38.7127 -17.2533 -24.1485 -21.0487 59.9254 19.9896 24.3899 -26.9542 7.1282 24.9332 -34.3873 20.9444 29.5153 83.2655 -39.2007 -21.4202 -13.1695 -22.7667 
3.34986 83.2482 8.23554 0.111368 -8.3762 -58.1768 -3.37701 8.51547 10.5739 -62.6576 -38.4987 -13.0813 0.000334867 -4.9519e-06 -108.937 -23.8278 -4.4316 -8.67231 -9.17792 11.2857 45.4008 51.8054 39.2633 55.4162 0.00277692 2.33155e-06 98.7892 10.4971 -1.963 19.039 -40.9622 -18.9883 -24.7984 -19.7428 57.6326 19.3786 24.0338 -21.2732 9.59962 26.0055 -32.4289 22.7807 19.6902 81.8436 -29.1396 -18.7102 -17.7087 -18.8898 
4.30797 83.6151 10.7991 0.0307284 -7.58864 -62.0287 -3.44666 7.70642 9.14531 -59.8703 -44.1965 -13.9623 0.000335257 -3.62296e-06 -103.735 -27.6803 -3.9681 -9.96298 -11.5674 8.44426 50.1186 46.8408 41.5995 59.1104 0.002777 1.75798e-06 96.6158 10.9643 -1.64869 18.1768 -42.4187 -21.12 -25.1191 -18.5769 55.185 18.8909 23.4775 -12.864 11.4571 27.611 -29.2821 24.923 7.70476 77.8883 -14.5301 -15.2184 -20.6804 -14.4005 
5.46192 83.7808 13.5808 -0.752393 -6.20794 -65.0196 -3.11269 7.34838 6.22013 -57.7931 -51.0003 -18.886 0.000335671 -8.19425e-07 -93.0784 -29.45 0.178423 -10.8829 -13.6033 4.17101 55.4778 40.7672 43.0291 63.5555 0.00277705 1.19062e-06 94.4752 11.5736 -0.882362 17.4608 -42.4302 -23.1273 -24.6426 -17.7678 53.6565 19.5751 19.7404 -5.5133 10.8948 29.8384 -25.7878 26.5035 -1.36546 72.303 0.136213 -13.2601 -21.0501 -14.2025 
6.6896 83.6476 16.4557 -1.86961 -4.30959 -65.2867 -2.7735 7.22809 1.68708 -57.6886 -56.4083 -29.39 -0.00330183 3.55564e-06 -76.5249 -27.4902 6.41066 -10.8948 -14.1023 0.0312357 59.5047 35.5716 42.8445 65.8489 0.00277706 1.07166e-06 94.0273 11.9233 0.351403 16.8232 -40.7659 -24.5072 -21.556 -17.6774 53.6351 20.9896 16.3584 0.684593 7.44763 31.1929 -24.1652 27.1437 -2.42491 67.3119 3.93818 -12.8684 -21.6255 -14.0645 
7.75518 83.306 19.197 -2.81843 -2.39447 -61.3056 -3.07089 7.29616 -3.24431 -61.8206 -57.1713 -46.9222 -0.0158626 8.39452e-06 -56.6231 -22.1128 11.7924 -12.1955 -12.2912 -2.41549 59.8475 34.4746 40.9053 61.8697 0.00277698 1.87565e-06 97.0608 12.182 2.69906 15.3578 -38.7273 -24.0438 -17.7195 -18.0749 54.7708 23.2584 13.7408 6.39363 2.03626 32.0776 -26.0911 26.6318 0.146739 66.2825 -0.656652 -16.9938 -24.9892 -14.8438 
8.36175 82.9437 21.603 -3.30722 -1.04168 -52.9768 -4.27899 7.63768 -6.47416 -68.4504 -50.7997 -66.2259 1.98363e-05 1.16148e-05 -40.4311 -17.6022 14.854 -16.0488 -8.2582 -2.83409 54.9962 39.5132 37.0851 49.8533 0.00277662 3.80885e-06 104.455 13.6588 6.13659 12.8623 -37.0387 -20.9543 -14.612 -18.7447 56.4252 25.837 12.2065 10.6236 -4.23978 30.8616 -32.1283 24.9322 6.44364 68.544 -10.3586 -15.2727 -25.5473 -14.327 
8.41323 82.6756 23.7177 -3.10592 -0.524708 -41.793 -6.13338 8.10242 -6.53298 -71.6195 -38.4804 -74.2805 -0.000146046 1.15125e-05 -41.02 -18.798 14.7817 -17.4971 -2.77271 -1.5839 45.2918 47.1529 31.283 34.9987 0.00277563 6.5287e-06 115.332 12.8423 8.93466 11.3865 -35.8076 -15.2963 -13.1037 -19.7363 58.0547 23.5551 10.262 12.6176 -5.48146 26.2531 -38.4382 20.7576 13.0391 70.2185 -18.9764 -12.1827 -26.0677 -15.7089 
8.17692 82.6923 25.7622 -2.10033 -0.661383 -30.0398 -7.66128 8.16299 -3.35862 -69.6153 -25.0644 -69.0261 -0.000381503 8.22287e-06 -57.3916 -21.6588 10.1082 -16.4129 2.36288 0.613894 31.9996 49.983 25.3154 26.637 0.00277423 8.91414e-06 125.746 9.35476 11.45 11.7807 -34.3213 -7.76567 -12.9735 -19.6785 58.3155 18.7165 7.32203 11.2175 -4.97373 19.529 -43.0241 14.7217 14.2986 70.718 -19.3122 -10.223 -25.1538 -21.3409 
8.01256 82.9079 27.5675 -0.500351 -1.01222 -19.9227 -7.32644 7.98083 2.30052 -65.5654 -15.2015 -59.1233 -0.000831071 3.91519e-06 -75.1324 -19.302 3.62951 -16.6346 4.02681 2.17081 17.1989 44.8474 18.3861 31.5597 0.00277356 9.77339e-06 129.83 4.63483 15.0861 9.3946 -31.7087 -0.445201 -12.9111 -18.7652 56.6439 15.1935 4.45304 7.88034 -7.54285 11.815 -45.3842 8.3988 13.7146 70.3368 -18.3078 -8.28041 -24.2213 -25.9556 
8.09132 83.1627 28.8162 1.29828 -1.15288 -13.0485 -5.12502 8.50284 9.55564 -62.0231 -9.87036 -49.1238 -0.00141101 6.53641e-07 -87.5449 -12.5277 -0.510065 -17.2718 2.94845 3.09012 3.73375 36.0205 7.92997 44.0345 0.00277495 7.81647e-06 120.815 1.43461 19.6564 4.58289 -29.4708 4.46658 -13.8084 -17.4181 53.5563 11.8435 0.974467 6.52167 -10.3436 5.28816 -46.1629 3.3941 12.2298 69.599 -16.8931 -6.63757 -23.4657 -28.5649 
8.33008 83.5425 29.5467 2.97154 -0.89195 -9.53664 -2.85218 9.5146 17.0701 -59.8878 -6.78187 -40.9817 -0.00203628 -1.21439e-06 -94.5648 -6.7647 -0.321355 -17.6982 1.41686 3.83106 -6.69437 30.0334 -1.36023 54.2983 0.00277693 2.2967e-06 98.6569 1.34818 24.7827 1.19666 -28.7828 6.39873 -15.3894 -15.9265 50.8177 9.49296 -1.83713 7.81639 -13.1674 1.16825 -46.2262 0.612125 9.72503 68.5267 -14.848 -5.27237 -22.7651 -29.4349 
8.50024 83.9895 29.9686 4.3431 -0.263286 -7.72517 -1.97715 10.2164 22.9712 -58.7961 -3.94262 -37.1651 -0.00262218 -1.91675e-06 -97.2163 -4.74851 1.92176 -16.1474 1.36846 4.52675 -13.9 28.595 -6.2914 63.9428 0.00277618 -5.21102e-06 70.0311 -0.0754796 29.2599 -2.40368 -29.3318 6.75079 -16.7138 -13.7347 49.3817 7.33452 -3.20014 9.85068 -15.8371 -0.760036 -46.2983 -0.27249 6.45517 67.2603 -12.3605 -4.00816 -21.9683 -29.9156 
8.48174 84.3801 30.2758 5.13426 0.564689 -5.89881 -2.50218 10.0722 25.6917 -58.0945 -2.15889 -35.8921 -0.0030846 -2.98977e-06 -101.3 -4.62364 3.70547 -13.5742 3.10176 4.89316 -17.6621 33.5383 -7.64497 73.2153 0.00277251 -1.09078e-05 44.3686 -8.75121 31.4414 0.208583 -29.2575 7.09117 -17.3781 -12.2389 48.6704 5.77476 -3.56379 10.6601 -17.3639 -1.45161 -46.5331 -0.354957 3.64754 66.0157 -10.6397 -2.81605 -21.1185 -30.6272 
8.34426 84.6921 30.424 5.083 1.2736 -4.15131 -3.5708 9.78242 25.2082 -58.1671 -2.05086 -36.751 -0.00333933 -4.13131e-06 -105.709 -4.98626 4.16508 -11.3002 5.57004 4.46081 -17.8914 43.0776 -6.56061 73.5378 0.0027721 -1.12941e-05 42.254 -16.1859 30.5384 3.7155 -27.783 7.54928 -17.1866 -11.9362 48.2823 5.15225 -4.4869 9.70174 -16.6734 -1.28945 -46.9976 -0.153079 2.45569 65.2401 -11.5004 -1.66566 -20.4059 -30.3117 
8.25181 84.9867 30.239 4.26586 1.6034 -3.86048 -4.49221 10.1517 22.869 -59.0647 -3.7178 -38.9568 -0.00330203 -4.78654e-06 -108.282 -5.62034 3.83682 -9.99702 7.78053 3.41985 -15.1058 50.9854 -2.80586 64.1107 0.00277548 -6.84682e-06 63.3389 -16.7615 25.8654 4.26412 -25.8489 7.22986 -16.6422 -13.0771 48.2476 5.81162 -5.99928 7.55972 -13.787 -0.14006 -47.1542 0.522737 3.08168 64.6189 -12.7227 -1.62971 -19.9102 -30.2853 
8.34942 85.3077 29.6808 3.01968 1.60151 -6.00355 -5.09862 10.9692 20.0723 -60.1671 -6.89411 -41.1902 -0.00288838 -4.78014e-06 -108.256 -6.89646 3.56651 -9.7023 9.69053 2.74537 -10.0505 55.2581 3.89917 53.1142 0.00277708 -6.99572e-07 87.3722 -15.2008 18.4383 5.76543 -24.9341 5.5495 -16.4471 -15.0114 48.7613 7.26774 -6.82005 5.11002 -9.5231 2.19138 -46.8737 2.04516 4.74011 64.0468 -12.7644 -2.87787 -19.6654 -30.7018 
8.69751 85.5717 28.7924 1.61678 1.43956 -10.3264 -5.4845 11.7689 17.2879 -61.1589 -11.263 -42.6012 -0.00201426 -4.39675e-06 -106.747 -8.62324 3.37477 -10.1971 10.7817 3.14677 -3.60129 58.2248 12.1117 42.9275 0.0027765 4.2506e-06 106.175 -12.9728 12.5065 8.03145 -25.8568 2.64409 -16.8494 -16.211 50.154 8.57415 -6.10021 3.17043 -5.10077 5.61339 -46.3466 4.50719 6.41587 63.7814 -13.7168 -4.03088 -19.7059 -28.8704 
9.30027 85.6683 27.6576 0.113741 1.16737 -15.9688 -5.51477 12.5865 14.2709 -62.2057 -16.6367 -43.057 -0.000595657 -4.11087e-06 -105.629 -9.99433 2.5308 -11.3905 10.7719 4.05642 3.89584 60.904 19.2462 35.7054 0.00277549 6.82385e-06 116.565 -9.86323 8.08279 11.8334 -27.8422 -0.638393 -18.0403 -16.6881 51.3896 11.0234 -3.66734 2.49148 -2.67495 9.81958 -45.4276 7.7034 7.63938 63.8598 -14.7502 -5.01232 -19.9667 -25.7536 
10.0659 85.4222 26.2462 -1.39312 0.757489 -22.4009 -5.14828 13.7306 11.1675 -63.6871 -22.8764 -43.2615 0.00288335 -4.10337e-06 -105.6 -11.1995 1.02367 -13.0724 9.78908 4.56622 12.23 61.8044 23.475 34.8489 0.000852455 7.61685e-06 119.946 -6.02886 3.82087 15.3817 -30.1655 -4.22852 -19.7083 -17.359 52.8446 15.643 -0.0561105 1.6048 -2.64888 14.3327 -44.2906 11.2149 8.72873 64.6015 -15.7266 -6.05349 -20.4509 -22.3189 
